<?xml version="1.0" encoding="UTF-8" standalone="no"?>
<!-- Generator: Adobe Illustrator 26.0.1, SVG Export Plug-In . SVG Version: 6.00 Build 0)  -->

<svg
   version="1.1"
   id="Layer_1"
   x="0px"
   y="0px"
   viewBox="0 0 375 347"
   style="enable-background:new 0 0 375 347;"
   xml:space="preserve"
   sodipodi:docname="angerf.svg"
   inkscape:version="1.2.2 (732a01da63, 2022-12-09)"
   xmlns:inkscape="http://www.inkscape.org/namespaces/inkscape"
   xmlns:sodipodi="http://sodipodi.sourceforge.net/DTD/sodipodi-0.dtd"
   xmlns="http://www.w3.org/2000/svg"
   xmlns:svg="http://www.w3.org/2000/svg"><defs
   id="defs51" /><sodipodi:namedview
   id="namedview49"
   pagecolor="#ffffff"
   bordercolor="#000000"
   borderopacity="0.25"
   inkscape:showpageshadow="2"
   inkscape:pageopacity="0.0"
   inkscape:pagecheckerboard="0"
   inkscape:deskcolor="#d1d1d1"
   showgrid="false"
   inkscape:zoom="1.7614755"
   inkscape:cx="153.28059"
   inkscape:cy="196.14238"
   inkscape:window-width="1920"
   inkscape:window-height="991"
   inkscape:window-x="-9"
   inkscape:window-y="-9"
   inkscape:window-maximized="1"
   inkscape:current-layer="Layer_1" />
<style
   type="text/css"
   id="style2">
	.st0{fill:none;stroke:#000000;stroke-width:15;stroke-linecap:round;stroke-miterlimit:10;}
</style>
<g
   id="g856"
   transform="matrix(0.66779373,0,0,0.69373492,68.57166,41.216178)"><g
     id="g46">
	<line
   class="st0"
   x1="319.32001"
   y1="147.96001"
   x2="215.32001"
   y2="194.96001"
   id="line4" />
	<line
   class="st0"
   x1="163.36"
   y1="195.00999"
   x2="55.77"
   y2="156.92999"
   id="line6" />
	<g
   id="g10">
		<path
   d="m 208.64,171.39 c 3.33,-4.23 6.85,-8.24 10.35,-12.26 3.52,-4 7.12,-7.9 10.82,-11.68 1.85,-1.89 3.48,-4.04 5.22,-6.07 1.74,-2.03 3.75,-3.72 6.07,-5.02 2.31,-1.32 4.81,-2.41 7.51,-3.26 2.72,-0.82 5.59,-1.45 8.99,-1.43 0.54,0 0.97,0.44 0.96,0.97 0,0.06 -0.01,0.13 -0.02,0.19 -0.68,3.33 -1.89,6.01 -3.25,8.5 -1.38,2.46 -2.97,4.68 -4.73,6.67 -1.76,2 -3.82,3.63 -6.17,4.91 -2.34,1.28 -4.79,2.43 -7.02,3.86 -4.46,2.84 -9.01,5.57 -13.66,8.18 -4.66,2.6 -9.3,5.21 -14.13,7.6 -0.38,0.19 -0.84,0.03 -1.03,-0.35 -0.13,-0.27 -0.09,-0.59 0.09,-0.81 z"
   id="path8" />
	</g>
	<g
   id="g14">
		<path
   d="m 167.14,173.06 c -5.4,-1.6 -10.66,-3.46 -15.93,-5.3 -5.26,-1.86 -10.45,-3.85 -15.57,-5.96 -2.56,-1.06 -5.28,-1.82 -7.93,-2.72 -2.65,-0.9 -5.08,-2.19 -7.28,-3.9 -2.2,-1.7 -4.27,-3.66 -6.19,-5.9 -1.9,-2.26 -3.68,-4.75 -5.06,-7.96 -0.21,-0.48 0.02,-1.04 0.5,-1.25 0.07,-0.03 0.15,-0.05 0.22,-0.06 3.45,-0.56 6.5,-0.4 9.43,-0.02 2.91,0.41 5.68,1.1 8.3,2.04 2.63,0.93 5.02,2.29 7.21,4.03 2.18,1.74 4.29,3.63 6.56,5.22 4.54,3.18 9.01,6.48 13.4,9.91 4.39,3.45 8.79,6.88 13.04,10.56 0.32,0.28 0.36,0.76 0.08,1.08 -0.18,0.23 -0.5,0.31 -0.78,0.23 z"
   id="path12" />
	</g>
	<g
   id="g20">
		<g
   id="g18">
			<path
   d="m 180.08,287.56 c 3.93,-5.12 7.65,-10.4 11.13,-15.84 1.72,-2.69 3.38,-5.41 4.98,-8.17 0.78,-1.35 1.55,-2.7 2.3,-4.06 0.36,-0.65 0.78,-1.3 1.11,-1.96 0.31,-0.63 -1.31,1.42 -0.45,0.56 0.86,-0.86 -1.6,0.97 -0.49,0.42 -0.6,0.25 -1.19,0.5 -1.79,0.76 0.19,-0.08 0.39,-0.13 0.6,-0.15 -0.66,0.09 -1.33,0.18 -1.99,0.27 0.11,0 0.22,0 0.32,0 -0.66,-0.09 -1.33,-0.18 -1.99,-0.27 0.23,0.02 0.46,0.08 0.67,0.17 -0.6,-0.25 -1.19,-0.5 -1.79,-0.76 1.07,0.56 -0.96,-1 -0.51,-0.46 0.19,0.23 0.42,0.43 0.63,0.65 0.56,0.61 1.11,1.24 1.66,1.86 1.11,1.24 2.22,2.47 3.33,3.71 2.22,2.47 4.44,4.95 6.65,7.42 4.44,4.95 8.87,9.9 13.31,14.85 2.63,2.93 7.97,2.87 10.61,0 2.87,-3.13 2.8,-7.48 0,-10.61 -7.71,-8.6 -15.42,-17.2 -23.13,-25.8 -2.63,-2.94 -5.43,-5.91 -9.76,-5.77 -4.39,0.15 -7.48,3.08 -9.49,6.73 -2.62,4.77 -5.4,9.46 -8.36,14.03 -3.3,5.09 -6.8,10.05 -10.5,14.86 -1.1,1.43 -1.21,4.13 -0.76,5.78 0.48,1.74 1.82,3.62 3.45,4.48 1.74,0.92 3.85,1.38 5.78,0.76 1.99,-0.66 3.22,-1.82 4.48,-3.46 z"
   id="path16" />
		</g>
	</g>
	<g
   id="g26">
		<g
   id="g24">
			<path
   d="m 276.62,59.52 c -0.85,3.63 -1.25,7.42 -0.96,11.15 0.32,4.13 0.89,8.9 4.74,11.29 3.14,1.95 7.41,1.55 10.96,1.71 3.56,0.16 7.11,0.32 10.67,0.48 2.62,0.12 5.12,-2.38 5,-5 -0.13,-2.81 -2.2,-4.87 -5,-5 -3.01,-0.14 -6.02,-0.27 -9.03,-0.41 -1.5,-0.07 -3.01,-0.14 -4.51,-0.2 -0.79,-0.04 -1.58,-0.06 -2.37,-0.11 -0.29,-0.02 -0.97,-0.29 -0.3,0.01 0.73,0.33 -0.18,-0.08 -0.43,-0.12 -0.52,-0.07 0.87,0.58 0.19,0.08 0.54,0.46 0.67,0.56 0.4,0.3 -0.26,-0.27 -0.16,-0.14 0.29,0.39 -0.5,-0.71 0.18,0.73 0.04,0.18 -0.08,-0.31 -0.19,-0.62 -0.26,-0.94 -0.06,-0.29 -0.12,-0.57 -0.17,-0.86 -0.03,-0.2 -0.29,-1.54 -0.06,-0.23 -0.12,-0.71 -0.16,-1.45 -0.2,-2.17 -0.08,-1.45 -0.07,-2.9 0.05,-4.35 0.03,-0.33 0.06,-0.66 0.09,-0.98 0.13,-1.33 -0.2,1.07 0.03,-0.24 0.14,-0.78 0.29,-1.55 0.47,-2.33 0.59,-2.54 -0.79,-5.53 -3.49,-6.15 -2.56,-0.57 -5.52,0.78 -6.15,3.5 z"
   id="path22" />
		</g>
	</g>
	<g
   id="g32">
		<g
   id="g30">
			<path
   d="m 263.15,62.01 c 0.54,4.43 0.53,8.91 -0.05,13.34 0.06,-0.44 0.12,-0.89 0.18,-1.33 -0.05,0.38 -0.1,0.77 -0.17,1.15 -0.04,0.22 -0.4,1.22 -0.01,0.35 0.2,-0.44 0.22,-0.49 0.05,-0.16 0.28,-0.47 0.66,-0.83 1.14,-1.09 -0.45,0.25 -0.27,0.18 0.53,-0.21 -0.16,0.04 -0.32,0.07 -0.49,0.09 0.44,-0.06 0.89,-0.12 1.33,-0.18 -0.52,0.04 -1.02,0 -1.54,-0.06 0.44,0.06 0.89,0.12 1.33,0.18 -4.37,-0.61 -8.74,-1.26 -13.1,-1.89 -1.16,-0.17 -2.14,-0.22 -3.26,0.25 -0.96,0.41 -1.89,1.1 -2.39,2.05 -0.42,0.79 -0.64,1.64 -0.68,2.52 -0.05,1.13 0.57,2.8 1.46,3.54 0.97,0.8 1.94,1.6 2.9,2.4 1.05,0.87 2.13,1.46 3.54,1.46 1.23,0 2.69,-0.54 3.54,-1.46 1.69,-1.84 2.15,-5.29 0,-7.07 -0.97,-0.8 -1.94,-1.6 -2.9,-2.4 -1.62,2.79 -3.24,5.57 -4.86,8.36 3.16,0.46 6.31,0.91 9.47,1.37 3.79,0.55 8.42,1.87 11.48,-1.32 1.31,-1.36 1.99,-3.04 2.25,-4.88 0.27,-1.88 0.5,-3.76 0.6,-5.65 0.17,-3.12 0.05,-6.24 -0.33,-9.34 -0.17,-1.37 -0.45,-2.52 -1.46,-3.54 -0.87,-0.87 -2.29,-1.52 -3.54,-1.46 -1.29,0.06 -2.63,0.48 -3.54,1.46 -0.85,0.89 -1.64,2.24 -1.48,3.52 z"
   id="path28" />
		</g>
	</g>
	<g
   id="g38">
		<g
   id="g36">
			<path
   d="m 302.86,90.84 c -7.39,-1.68 -14.99,-2.54 -22.57,-2.49 -2.52,0.02 -5.25,2.28 -5,5 0.47,5.18 1.79,10.01 4.08,14.69 1.15,2.36 4.69,3.18 6.84,1.79 2.41,-1.56 3.03,-4.32 1.79,-6.84 -0.22,-0.44 -0.51,-0.92 -0.65,-1.39 0.36,1.26 -0.13,-0.34 -0.22,-0.59 -0.34,-0.9 -0.63,-1.82 -0.89,-2.74 -0.26,-0.93 -0.48,-1.86 -0.66,-2.81 -0.09,-0.5 -0.21,-1.01 -0.25,-1.52 0.11,1.41 -0.01,-0.32 -0.04,-0.58 -1.67,1.67 -3.33,3.33 -5,5 3.5,-0.02 7,0.14 10.48,0.51 0.41,0.04 0.82,0.09 1.23,0.14 0.26,0.03 1.78,0.17 0.51,0.06 0.81,0.07 1.64,0.24 2.44,0.38 1.76,0.3 3.51,0.65 5.25,1.04 2.54,0.58 5.53,-0.78 6.15,-3.49 0.58,-2.55 -0.76,-5.54 -3.49,-6.16 z"
   id="path34" />
		</g>
	</g>
	<g
   id="g44">
		<g
   id="g42">
			<path
   d="m 248,98.38 c 0.3,-0.04 0.59,-0.09 0.89,-0.13 0.14,-0.02 0.97,-0.13 0.23,-0.04 -0.82,0.11 0.36,-0.04 0.42,-0.05 0.24,-0.03 0.49,-0.06 0.73,-0.08 1.09,-0.12 2.19,-0.21 3.29,-0.25 1.08,-0.04 2.17,-0.03 3.26,0.05 0.18,0.01 0.54,0.12 0.71,0.07 -0.4,0.12 -0.95,-0.15 -0.1,-0.01 0.52,0.09 1.03,0.2 1.54,0.34 0.45,0.12 0.88,0.27 1.32,0.42 1.06,0.36 -0.64,-0.35 -0.08,-0.03 0.2,0.11 0.42,0.2 0.62,0.31 0.13,0.07 1.22,0.88 1.34,0.84 -0.49,-0.39 -0.59,-0.47 -0.31,-0.23 0.09,0.07 0.18,0.15 0.27,0.23 0.18,0.16 0.35,0.32 0.52,0.49 0.21,0.21 0.4,0.43 0.6,0.65 0.48,0.53 0.06,-0.09 -0.13,-0.17 0.31,0.12 0.67,1.06 0.84,1.37 0.06,0.1 0.11,0.21 0.16,0.32 0.16,0.34 0.11,0.21 -0.14,-0.38 -0.01,0.17 0.19,0.5 0.24,0.67 0.19,0.56 0.32,1.14 0.43,1.73 0.48,2.58 3.73,4.27 6.15,3.49 2.76,-0.89 4,-3.39 3.49,-6.15 -1.16,-6.27 -6.05,-11.1 -12,-13 -5.48,-1.75 -11.39,-0.92 -16.95,-0.09 -2.6,0.39 -4.25,3.8 -3.49,6.15 0.91,2.82 3.36,3.89 6.15,3.48 z"
   id="path40" />
		</g>
	</g>
</g></g>
</svg>
