<?xml version="1.0" encoding="UTF-8" standalone="no"?>
<!-- Generator: Adobe Illustrator 26.0.1, SVG Export Plug-In . SVG Version: 6.00 Build 0)  -->

<svg
   version="1.1"
   id="Layer_1"
   x="0px"
   y="0px"
   viewBox="0 0 375 347"
   style="enable-background:new 0 0 375 347;"
   xml:space="preserve"
   sodipodi:docname="bord.svg"
   inkscape:version="1.2.2 (732a01da63, 2022-12-09)"
   xmlns:inkscape="http://www.inkscape.org/namespaces/inkscape"
   xmlns:sodipodi="http://sodipodi.sourceforge.net/DTD/sodipodi-0.dtd"
   xmlns="http://www.w3.org/2000/svg"
   xmlns:svg="http://www.w3.org/2000/svg"><defs
   id="defs2063" /><sodipodi:namedview
   id="namedview2061"
   pagecolor="#ffffff"
   bordercolor="#000000"
   borderopacity="0.25"
   inkscape:showpageshadow="2"
   inkscape:pageopacity="0.0"
   inkscape:pagecheckerboard="0"
   inkscape:deskcolor="#d1d1d1"
   showgrid="false"
   inkscape:zoom="1.7398427"
   inkscape:cx="134.49492"
   inkscape:cy="193.40829"
   inkscape:window-width="1920"
   inkscape:window-height="991"
   inkscape:window-x="-9"
   inkscape:window-y="-9"
   inkscape:window-maximized="1"
   inkscape:current-layer="Layer_1" />
<g
   id="g4013"
   transform="matrix(0.56288062,0,0,0.62729086,82.552135,55.552252)"><g
     id="g2058">
	<g
   id="g2032">
		<g
   id="g2030">
			<path
   d="m 219.54,184.42 c 26.04,0 52.07,0 78.11,0 7.3,0 14.59,0 21.89,0 5.23,0 10.24,-4.6 10,-10 -0.24,-5.42 -4.39,-10 -10,-10 -26.04,0 -52.07,0 -78.11,0 -7.3,0 -14.59,0 -21.89,0 -5.23,0 -10.24,4.6 -10,10 0.24,5.42 4.39,10 10,10 z"
   id="path2028" />
		</g>
	</g>
	<g
   id="g2038">
		<g
   id="g2036">
			<path
   d="m 55.54,184.42 c 26.2,0 52.41,0 78.61,0 7.46,0 14.93,0 22.39,0 5.23,0 10.24,-4.6 10,-10 -0.24,-5.42 -4.39,-10 -10,-10 -26.2,0 -52.41,0 -78.61,0 -7.46,0 -14.93,0 -22.39,0 -5.23,0 -10.24,4.6 -10,10 0.24,5.42 4.39,10 10,10 z"
   id="path2034" />
		</g>
	</g>
	<g
   id="g2044">
		<g
   id="g2042">
			<path
   d="m 132.54,272.42 c 26.7,0 53.41,0 80.11,0 7.63,0 15.26,0 22.89,0 5.23,0 10.24,-4.6 10,-10 -0.24,-5.42 -4.39,-10 -10,-10 -26.7,0 -53.41,0 -80.11,0 -7.63,0 -15.26,0 -22.89,0 -5.23,0 -10.24,4.6 -10,10 0.24,5.42 4.39,10 10,10 z"
   id="path2040" />
		</g>
	</g>
	<g
   id="g2050">
		<g
   id="g2048">
			<path
   d="m 244.56,110.44 c 0.97,-1.75 2.06,-3.41 3.27,-5 -0.52,0.67 -1.04,1.35 -1.56,2.02 2.08,-2.66 4.47,-5.02 7.14,-7.1 -0.67,0.52 -1.35,1.04 -2.02,1.56 2.78,-2.13 5.8,-3.89 9.02,-5.27 -0.8,0.34 -1.59,0.67 -2.39,1.01 3.23,-1.35 6.59,-2.28 10.06,-2.76 -0.89,0.12 -1.77,0.24 -2.66,0.36 3.27,-0.42 6.55,-0.4 9.81,0.02 -0.89,-0.12 -1.77,-0.24 -2.66,-0.36 3.53,0.49 6.96,1.44 10.25,2.82 -0.8,-0.34 -1.59,-0.67 -2.39,-1.01 3.16,1.36 6.13,3.08 8.87,5.16 -0.67,-0.52 -1.35,-1.04 -2.02,-1.56 2.62,2.02 4.97,4.34 7.02,6.94 -0.52,-0.67 -1.04,-1.35 -1.56,-2.02 0.62,0.81 1.21,1.63 1.77,2.48 1.44,2.17 3.41,3.89 5.98,4.6 2.39,0.66 5.58,0.36 7.71,-1.01 2.14,-1.38 4.01,-3.43 4.6,-5.98 0.58,-2.54 0.48,-5.46 -1.01,-7.71 -7.28,-10.99 -18.94,-19.29 -32.02,-21.69 -6.95,-1.28 -13.78,-1.26 -20.68,0.36 -5.86,1.37 -11.69,3.97 -16.6,7.47 -6.19,4.42 -11.5,9.87 -15.2,16.57 -1.27,2.31 -1.71,5.14 -1.01,7.71 0.64,2.32 2.43,4.83 4.6,5.98 4.69,2.48 10.98,1.3 13.68,-3.59 z"
   id="path2046" />
		</g>
	</g>
	<g
   id="g2056">
		<g
   id="g2054">
			<path
   d="m 74.94,112.47 c 2.55,-2.9 5.37,-5.54 8.42,-7.91 -0.67,0.52 -1.35,1.04 -2.02,1.56 3.91,-3 8.15,-5.51 12.68,-7.44 -0.8,0.34 -1.59,0.67 -2.39,1.01 4.15,-1.74 8.48,-2.97 12.94,-3.6 -0.89,0.12 -1.77,0.24 -2.66,0.36 4.06,-0.54 8.14,-0.57 12.2,-0.04 -0.89,-0.12 -1.77,-0.24 -2.66,-0.36 3.98,0.55 7.85,1.59 11.56,3.12 -0.8,-0.34 -1.59,-0.67 -2.39,-1.01 3.56,1.5 6.91,3.43 9.98,5.8 -0.67,-0.52 -1.35,-1.04 -2.02,-1.56 2.54,2 4.83,4.26 6.83,6.8 -0.52,-0.67 -1.04,-1.35 -1.56,-2.02 0.61,0.79 1.19,1.6 1.74,2.43 1.44,2.17 3.41,3.89 5.98,4.6 2.39,0.66 5.58,0.36 7.71,-1.01 2.14,-1.38 4.01,-3.43 4.6,-5.98 0.58,-2.54 0.48,-5.46 -1.01,-7.71 -7.58,-11.41 -19.67,-19.55 -33.12,-22.25 -7.43,-1.49 -14.6,-1.49 -22.05,-0.21 -6.68,1.14 -13.22,3.7 -19.12,6.98 -6.63,3.68 -12.75,8.62 -17.76,14.3 -1.76,2 -2.93,4.34 -2.93,7.07 0,2.45 1.09,5.38 2.93,7.07 1.91,1.75 4.41,3.05 7.07,2.93 2.53,-0.12 5.3,-0.95 7.05,-2.93 z"
   id="path2052" />
		</g>
	</g>
</g></g>
</svg>
