<?xml version="1.0" encoding="UTF-8" standalone="no"?>
<!-- Generator: Adobe Illustrator 26.0.1, SVG Export Plug-In . SVG Version: 6.00 Build 0)  -->

<svg
   version="1.1"
   id="Layer_1"
   x="0px"
   y="0px"
   viewBox="0 0 375 347"
   style="enable-background:new 0 0 375 347;"
   xml:space="preserve"
   sodipodi:docname="Smiler.svg"
   inkscape:version="1.2.2 (732a01da63, 2022-12-09)"
   xmlns:inkscape="http://www.inkscape.org/namespaces/inkscape"
   xmlns:sodipodi="http://sodipodi.sourceforge.net/DTD/sodipodi-0.dtd"
   xmlns="http://www.w3.org/2000/svg"
   xmlns:svg="http://www.w3.org/2000/svg"><defs
   id="defs12601" /><sodipodi:namedview
   id="namedview12599"
   pagecolor="#ffffff"
   bordercolor="#000000"
   borderopacity="0.25"
   inkscape:showpageshadow="2"
   inkscape:pageopacity="0.0"
   inkscape:pagecheckerboard="0"
   inkscape:deskcolor="#d1d1d1"
   showgrid="false"
   inkscape:zoom="1.4454585"
   inkscape:cx="153.58449"
   inkscape:cy="141.47761"
   inkscape:window-width="1920"
   inkscape:window-height="991"
   inkscape:window-x="-9"
   inkscape:window-y="-9"
   inkscape:window-maximized="1"
   inkscape:current-layer="Layer_1" />
<g
   id="g12596"
   transform="matrix(0.69585476,0,0,0.73501053,56.789815,40.661937)">
	<g
   id="g12570">
		<g
   id="g12568">
			<path
   d="m 227.48,158.41 c 0.26,-0.39 0.52,-0.78 0.8,-1.17 0.35,-0.49 1.44,-1.59 -0.09,0.06 0.54,-0.59 1.02,-1.25 1.56,-1.85 1.17,-1.3 2.43,-2.52 3.77,-3.64 0.31,-0.26 0.63,-0.5 0.94,-0.76 -1.71,1.44 -0.67,0.52 -0.23,0.2 0.76,-0.55 1.55,-1.07 2.35,-1.56 1.53,-0.93 3.13,-1.74 4.77,-2.45 -0.6,0.25 -1.19,0.5 -1.79,0.76 3.09,-1.29 6.31,-2.19 9.63,-2.65 -0.66,0.09 -1.33,0.18 -1.99,0.27 3.36,-0.43 6.73,-0.41 10.09,0.04 -0.66,-0.09 -1.33,-0.18 -1.99,-0.27 3.48,0.49 6.85,1.42 10.1,2.76 -0.6,-0.25 -1.19,-0.5 -1.79,-0.76 1.78,0.75 3.51,1.62 5.17,2.61 0.83,0.49 1.64,1.02 2.43,1.57 0.39,0.28 0.77,0.58 1.17,0.85 -2.05,-1.38 -0.57,-0.44 -0.1,-0.05 1.48,1.23 2.88,2.57 4.16,4.01 0.32,0.36 0.63,0.73 0.94,1.1 1.22,1.48 -0.8,-1.13 -0.06,-0.09 0.56,0.79 1.11,1.58 1.63,2.39 2.09,3.32 6.78,4.93 10.26,2.69 3.32,-2.14 4.93,-6.71 2.69,-10.26 -6.08,-9.67 -15.68,-16.72 -26.61,-19.98 -11.71,-3.49 -24.58,-2.11 -35.23,3.91 -6.29,3.56 -11.54,8.7 -15.52,14.71 -2.17,3.28 -0.76,8.44 2.69,10.26 3.75,1.98 7.94,0.8 10.25,-2.7 z"
   id="path12566" />
		</g>
	</g>
	<g
   id="g12576">
		<g
   id="g12574">
			<path
   d="m 96.06,158.41 c 0.26,-0.39 0.52,-0.78 0.8,-1.17 0.35,-0.49 1.44,-1.59 -0.09,0.06 0.54,-0.59 1.02,-1.25 1.56,-1.85 1.17,-1.3 2.43,-2.52 3.77,-3.64 0.31,-0.26 0.63,-0.5 0.94,-0.76 -1.71,1.44 -0.67,0.52 -0.23,0.2 0.76,-0.55 1.55,-1.07 2.35,-1.56 1.53,-0.93 3.13,-1.74 4.77,-2.45 -0.6,0.25 -1.19,0.5 -1.79,0.76 3.09,-1.29 6.31,-2.19 9.63,-2.65 -0.66,0.09 -1.33,0.18 -1.99,0.27 3.36,-0.43 6.73,-0.41 10.09,0.04 -0.66,-0.09 -1.33,-0.18 -1.99,-0.27 3.48,0.49 6.85,1.42 10.1,2.76 -0.6,-0.25 -1.19,-0.5 -1.79,-0.76 1.78,0.75 3.51,1.62 5.17,2.61 0.83,0.49 1.64,1.02 2.43,1.57 0.39,0.28 0.77,0.58 1.17,0.85 -2.05,-1.38 -0.57,-0.44 -0.1,-0.05 1.48,1.23 2.88,2.57 4.16,4.01 0.32,0.36 0.63,0.73 0.94,1.1 1.22,1.48 -0.8,-1.13 -0.06,-0.09 0.56,0.79 1.11,1.58 1.63,2.39 2.09,3.32 6.78,4.93 10.26,2.69 3.32,-2.14 4.93,-6.71 2.69,-10.26 -6.08,-9.67 -15.68,-16.72 -26.61,-19.98 -11.71,-3.49 -24.58,-2.11 -35.23,3.91 -6.29,3.56 -11.54,8.7 -15.52,14.71 -2.17,3.28 -0.76,8.44 2.69,10.26 3.74,1.98 7.93,0.8 10.25,-2.7 z"
   id="path12572" />
		</g>
	</g>
	<g
   id="g12582">
		<g
   id="g12580">
			<path
   d="m 223.64,216.3 c -0.61,1.04 -1.26,2.06 -1.94,3.06 -0.34,0.5 -0.7,0.98 -1.06,1.47 -0.53,0.74 1.11,-1.39 0.31,-0.4 -0.17,0.21 -0.34,0.42 -0.51,0.63 -1.58,1.92 -3.31,3.71 -5.16,5.37 -0.45,0.4 -0.91,0.8 -1.38,1.18 -0.21,0.17 -0.42,0.34 -0.63,0.51 -0.99,0.8 1.14,-0.84 0.4,-0.31 -0.98,0.71 -1.96,1.41 -2.98,2.07 -2.21,1.41 -4.53,2.62 -6.93,3.65 0.6,-0.25 1.19,-0.5 1.79,-0.76 -4,1.68 -8.18,2.86 -12.49,3.44 0.66,-0.09 1.33,-0.18 1.99,-0.27 -4.3,0.55 -8.62,0.52 -12.92,-0.04 0.66,0.09 1.33,0.18 1.99,0.27 -4.66,-0.64 -9.19,-1.89 -13.53,-3.71 0.6,0.25 1.19,0.5 1.79,0.76 -2.05,-0.88 -4.04,-1.87 -5.96,-2.99 -0.99,-0.58 -1.95,-1.18 -2.9,-1.82 -0.45,-0.3 -0.89,-0.61 -1.33,-0.93 -0.24,-0.18 -0.48,-0.36 -0.72,-0.53 -0.98,-0.72 1.21,0.97 0.52,0.4 -1.72,-1.4 -3.38,-2.87 -4.92,-4.47 -0.75,-0.78 -1.47,-1.59 -2.16,-2.42 -0.4,-0.48 -1.66,-2.26 -0.17,-0.18 -0.35,-0.49 -0.71,-0.97 -1.06,-1.46 -1.14,-1.63 -2.51,-2.9 -4.48,-3.45 -1.8,-0.49 -4.19,-0.27 -5.78,0.76 -3.18,2.05 -5.1,6.83 -2.69,10.26 8.12,11.58 20.3,19.92 34.08,23.26 14.65,3.54 30.44,1.4 43.25,-6.7 7.57,-4.78 13.95,-11.34 18.49,-19.06 1.99,-3.38 0.88,-8.37 -2.69,-10.26 -3.56,-1.92 -8.1,-0.94 -10.22,2.67 z"
   id="path12578" />
		</g>
	</g>
	<g
   id="g12588">
		<g
   id="g12586">
			<path
   d="m 246.99,107.39 c 0.84,-0.2 1.68,-0.35 2.53,-0.5 1.04,-0.19 -1.02,0.08 0.13,-0.02 0.37,-0.03 0.73,-0.08 1.1,-0.1 1.53,-0.12 3.07,-0.13 4.6,-0.04 0.43,0.03 0.86,0.06 1.29,0.1 0.36,0.04 1.37,0.34 0.13,0 0.7,0.19 1.47,0.23 2.18,0.38 1.57,0.32 3.11,0.75 4.62,1.27 0.35,0.12 0.7,0.25 1.04,0.38 0.53,0.2 0.95,0.31 0.17,0.05 0.74,0.25 1.48,0.67 2.17,1.02 1.37,0.7 2.69,1.49 3.95,2.37 0.3,0.21 0.6,0.43 0.9,0.64 0.82,0.58 -0.71,-0.58 0.29,0.24 0.62,0.51 1.22,1.03 1.79,1.58 1.16,1.1 2.23,2.29 3.22,3.54 1.63,2.06 5.39,1.83 7.07,0 2.01,-2.19 1.74,-4.87 0,-7.07 -9.22,-11.71 -25.46,-16.89 -39.84,-13.49 -2.55,0.6 -4.3,3.65 -3.49,6.15 0.86,2.66 3.42,4.14 6.15,3.5 z"
   id="path12584" />
		</g>
	</g>
	<g
   id="g12594">
		<g
   id="g12592">
			<path
   d="m 91.83,118.05 c 0.08,-0.11 0.92,-1.29 0.48,-0.68 -0.44,0.6 0.32,-0.39 0.41,-0.5 0.51,-0.61 1.04,-1.21 1.6,-1.78 0.96,-0.99 2.07,-2.27 3.27,-2.96 -1.09,0.63 0.07,-0.04 0.31,-0.22 0.3,-0.22 0.6,-0.43 0.91,-0.63 0.66,-0.45 1.34,-0.87 2.03,-1.27 0.64,-0.37 1.29,-0.72 1.95,-1.05 0.33,-0.16 0.66,-0.32 1,-0.48 0.22,-0.1 0.45,-0.2 0.67,-0.3 -0.57,0.24 -0.69,0.29 -0.34,0.15 1.44,-0.55 2.88,-1.06 4.37,-1.45 0.71,-0.19 1.43,-0.35 2.16,-0.49 0.36,-0.07 0.72,-0.14 1.09,-0.2 0.24,-0.04 0.49,-0.08 0.73,-0.11 -0.66,0.09 -0.8,0.11 -0.42,0.06 1.53,-0.13 3.05,-0.25 4.59,-0.21 0.74,0.02 1.47,0.06 2.21,0.12 0.35,0.03 0.75,0.03 1.1,0.12 -1.41,-0.35 0.2,0.05 0.49,0.11 2.57,0.46 5.51,-0.7 6.15,-3.49 0.56,-2.44 -0.74,-5.66 -3.49,-6.15 -15.29,-2.75 -30.97,3.66 -39.91,16.38 -1.51,2.15 -0.46,5.65 1.79,6.84 2.58,1.34 5.24,0.48 6.85,-1.81 z"
   id="path12590" />
		</g>
	</g>
</g>
</svg>
