<?xml version="1.0" encoding="UTF-8" standalone="no"?>
<!-- Generator: Adobe Illustrator 26.0.1, SVG Export Plug-In . SVG Version: 6.00 Build 0)  -->

<svg
   version="1.1"
   id="Layer_1"
   x="0px"
   y="0px"
   viewBox="0 0 375 347"
   style="enable-background:new 0 0 375 347;"
   xml:space="preserve"
   sodipodi:docname="sadle.svg"
   inkscape:version="1.2.2 (732a01da63, 2022-12-09)"
   xmlns:inkscape="http://www.inkscape.org/namespaces/inkscape"
   xmlns:sodipodi="http://sodipodi.sourceforge.net/DTD/sodipodi-0.dtd"
   xmlns="http://www.w3.org/2000/svg"
   xmlns:svg="http://www.w3.org/2000/svg"><defs
   id="defs5891" /><sodipodi:namedview
   id="namedview5889"
   pagecolor="#ffffff"
   bordercolor="#000000"
   borderopacity="0.25"
   inkscape:showpageshadow="2"
   inkscape:pageopacity="0.0"
   inkscape:pagecheckerboard="0"
   inkscape:deskcolor="#d1d1d1"
   showgrid="false"
   inkscape:zoom="1.4057199"
   inkscape:cx="172.86516"
   inkscape:cy="186.73706"
   inkscape:window-width="1920"
   inkscape:window-height="991"
   inkscape:window-x="-9"
   inkscape:window-y="-9"
   inkscape:window-maximized="1"
   inkscape:current-layer="Layer_1" />
<g
   id="g5886"
   transform="matrix(0.67650422,0,0,0.65219225,62.450975,53.064861)">
	<g
   id="g5854">
		<g
   id="g5852">
			<path
   d="m 209.22,153.39 c 4.03,4.72 8.47,9.07 13.29,12.98 5.12,4.15 10.57,8.26 16.6,11.02 3.23,1.48 6.5,2.73 10.03,3.25 4.14,0.61 8.06,0.51 12.17,-0.42 6.48,-1.47 12.54,-4.9 18.09,-8.47 6.35,-4.08 12.35,-8.79 17.83,-13.99 2.85,-2.71 2.93,-7.92 0,-10.61 -3.06,-2.81 -7.56,-2.89 -10.61,0 -1.97,1.87 -3.99,3.66 -6.09,5.38 -0.52,0.43 -1.05,0.85 -1.58,1.27 -0.18,0.14 -0.35,0.28 -0.53,0.42 0.27,-0.21 0.54,-0.41 0.8,-0.62 -0.23,0.19 -0.48,0.37 -0.72,0.55 -1.14,0.86 -2.3,1.7 -3.48,2.51 -4.44,3.08 -9.11,5.98 -14.1,8.09 0.6,-0.25 1.19,-0.5 1.79,-0.76 -2.43,1 -4.92,1.76 -7.52,2.15 0.66,-0.09 1.33,-0.18 1.99,-0.27 -2.02,0.26 -4.02,0.28 -6.05,0.03 0.66,0.09 1.33,0.18 1.99,0.27 -2.43,-0.35 -4.77,-1.04 -7.04,-1.97 0.6,0.25 1.19,0.5 1.79,0.76 -2.82,-1.2 -5.49,-2.71 -8.06,-4.38 -1.36,-0.88 -2.69,-1.81 -4,-2.76 -0.6,-0.43 -1.19,-0.88 -1.78,-1.32 -1.29,-0.97 1.37,1.1 0.12,0.09 -0.29,-0.23 -0.58,-0.46 -0.87,-0.69 -4.89,-3.94 -9.39,-8.34 -13.47,-13.12 -2.56,-2.99 -8.01,-2.83 -10.61,0 -2.9,3.19 -2.7,7.42 0.02,10.61 z"
   id="path5850" />
		</g>
	</g>
	<g
   id="g5860">
		<g
   id="g5858">
			<path
   d="m 78.41,153.39 c 4.03,4.72 8.47,9.07 13.29,12.98 5.12,4.15 10.57,8.26 16.6,11.02 3.23,1.48 6.5,2.73 10.03,3.25 4.14,0.61 8.06,0.51 12.17,-0.42 6.48,-1.47 12.54,-4.9 18.09,-8.47 6.35,-4.08 12.35,-8.79 17.83,-13.99 2.85,-2.71 2.93,-7.92 0,-10.61 -3.06,-2.81 -7.56,-2.89 -10.61,0 -1.97,1.87 -3.99,3.66 -6.09,5.38 -0.52,0.43 -1.05,0.85 -1.58,1.27 -0.18,0.14 -0.35,0.28 -0.53,0.42 0.27,-0.21 0.54,-0.41 0.8,-0.62 -0.23,0.19 -0.48,0.37 -0.72,0.55 -1.14,0.86 -2.3,1.7 -3.48,2.51 -4.44,3.08 -9.11,5.98 -14.1,8.09 0.6,-0.25 1.19,-0.5 1.79,-0.76 -2.43,1 -4.92,1.76 -7.52,2.15 0.66,-0.09 1.33,-0.18 1.99,-0.27 -2.02,0.26 -4.02,0.28 -6.05,0.03 0.66,0.09 1.33,0.18 1.99,0.27 -2.43,-0.35 -4.77,-1.04 -7.04,-1.97 0.6,0.25 1.19,0.5 1.79,0.76 -2.82,-1.2 -5.49,-2.71 -8.06,-4.38 -1.36,-0.88 -2.69,-1.81 -4,-2.76 -0.6,-0.43 -1.19,-0.88 -1.78,-1.32 -1.29,-0.97 1.37,1.1 0.12,0.09 -0.29,-0.23 -0.58,-0.46 -0.87,-0.69 -4.89,-3.94 -9.39,-8.34 -13.47,-13.12 -2.56,-2.99 -8.01,-2.83 -10.61,0 -2.9,3.19 -2.7,7.42 0.02,10.61 z"
   id="path5856" />
		</g>
	</g>
	<g
   id="g5866">
		<g
   id="g5864">
			<path
   d="m 233.27,255.45 c -4.46,-4.85 -9.39,-9.14 -14.63,-13.12 -4.8,-3.65 -9.94,-7.05 -15.49,-9.46 -3.48,-1.51 -6.9,-2.67 -10.67,-3.17 -3.86,-0.52 -7.52,-0.36 -11.36,0.41 -6.47,1.29 -12.58,4.52 -18.21,7.86 -6.5,3.85 -12.62,8.39 -18.28,13.38 -2.95,2.6 -2.86,7.98 0,10.61 3.15,2.89 7.46,2.78 10.61,0 0.95,-0.84 1.92,-1.67 2.9,-2.48 0.52,-0.43 1.05,-0.85 1.57,-1.27 0.23,-0.19 0.46,-0.39 0.71,-0.56 -0.26,0.18 -1.24,0.95 -0.45,0.35 2.11,-1.58 4.25,-3.12 6.46,-4.56 4.33,-2.83 8.87,-5.46 13.64,-7.48 -0.6,0.25 -1.19,0.5 -1.79,0.76 2.77,-1.14 5.61,-2.01 8.58,-2.44 -0.66,0.09 -1.33,0.18 -1.99,0.27 2.21,-0.28 4.4,-0.27 6.61,0.02 -0.66,-0.09 -1.33,-0.18 -1.99,-0.27 2.73,0.41 5.34,1.22 7.88,2.28 -0.6,-0.25 -1.19,-0.5 -1.79,-0.76 5.42,2.34 10.44,5.65 15.14,9.2 0.39,0.29 1.25,1.1 -0.29,-0.23 0.28,0.24 0.58,0.45 0.87,0.68 0.57,0.46 1.14,0.92 1.71,1.39 1.13,0.94 2.23,1.9 3.31,2.88 2.21,2.01 4.32,4.12 6.34,6.33 2.66,2.9 7.95,2.9 10.61,0 2.85,-3.12 2.84,-7.53 0,-10.62 z"
   id="path5862" />
		</g>
	</g>
	<g
   id="g5872">
		<g
   id="g5870">
			<path
   d="m 256.11,94.31 c 2.01,0.73 4.01,1.51 5.98,2.35 -0.6,-0.25 -1.19,-0.5 -1.79,-0.76 6.18,2.63 12.14,5.75 17.8,9.36 2.77,1.77 5.45,3.66 8.08,5.63 1.2,0.89 -1.25,-0.99 -0.16,-0.13 0.34,0.26 0.67,0.53 1.01,0.8 0.67,0.53 1.33,1.08 1.99,1.63 1.32,1.1 2.6,2.23 3.87,3.38 2.9,2.64 7.78,3.08 10.61,0 2.64,-2.87 3.1,-7.79 0,-10.61 -12.66,-11.49 -27.34,-20.28 -43.4,-26.11 -1.74,-0.63 -4.23,-0.15 -5.78,0.76 -1.56,0.91 -3.04,2.69 -3.45,4.48 -0.96,4.22 1.29,7.78 5.24,9.22 z"
   id="path5868" />
		</g>
	</g>
	<g
   id="g5878">
		<g
   id="g5876">
			<path
   d="m 82.1,117.8 c 2.69,-2.77 5.5,-5.41 8.43,-7.91 0.76,-0.65 1.53,-1.29 2.31,-1.91 0.39,-0.31 0.78,-0.63 1.17,-0.94 1.43,-1.13 -1.16,0.87 0.01,-0.01 1.54,-1.16 3.09,-2.3 4.68,-3.4 6.41,-4.42 13.24,-8.2 20.38,-11.32 1.61,-0.7 3,-2.87 3.45,-4.48 0.49,-1.8 0.27,-4.19 -0.76,-5.78 -1.03,-1.6 -2.57,-3.01 -4.48,-3.45 -2.09,-0.48 -3.83,-0.1 -5.78,0.76 -14.96,6.53 -28.64,16.12 -40.01,27.83 -2.74,2.82 -3.01,7.84 0,10.61 2.95,2.71 7.68,3 10.6,0 z"
   id="path5874" />
		</g>
	</g>
	<g
   id="g5884">
		<g
   id="g5882">
			<path
   d="m 93.84,184.17 c -6.78,5 -11.49,13.93 -8.97,22.43 1.29,4.35 5.02,8.64 10.01,7.08 4.88,-1.52 6.74,-7.07 4.92,-11.6 -0.9,-2.24 -2.95,-4.07 -3.52,-6.41 -0.63,-2.6 0.98,-5.32 2.18,-7.51 1.55,-2.82 -2.77,-5.35 -4.32,-2.52 -2.03,3.72 -4.03,8.07 -2.37,12.32 1.13,2.88 4.95,6.04 3.41,9.41 -0.44,0.97 -1.56,1.79 -2.65,1.62 -1.26,-0.19 -2.07,-1.64 -2.51,-2.7 -1.23,-2.96 -1.01,-6.26 0.01,-9.24 1.15,-3.36 3.46,-6.45 6.31,-8.56 1.08,-0.8 1.63,-2.17 0.9,-3.42 -0.6,-1.08 -2.31,-1.71 -3.4,-0.9 z"
   id="path5880" />
		</g>
	</g>
</g>
</svg>
