<?xml version="1.0" encoding="utf-8"?>
<!-- Generator: Adobe Illustrator 26.0.1, SVG Export Plug-In . SVG Version: 6.00 Build 0)  -->
<svg version="1.1" id="Layer_1" xmlns="http://www.w3.org/2000/svg" xmlns:xlink="http://www.w3.org/1999/xlink" x="0px" y="0px"
	 viewBox="0 0 595.3 841.9" style="enable-background:new 0 0 595.3 841.9;" xml:space="preserve">
<g>
	<g>
		<path d="M388.6,413.4c-24,14.4-48.1,28.8-72.1,43.1c-8.3,5-0.7,17.9,7.6,13c24-14.4,48.1-28.8,72.1-43.1
			C404.5,421.4,396.9,408.5,388.6,413.4L388.6,413.4z"/>
	</g>
</g>
<g>
	<g>
		<path d="M268.6,455.6c-24.4-13.7-48.9-27.4-73.3-41.1c-8.4-4.7-16,8.2-7.6,13c24.4,13.7,48.9,27.4,73.3,41.1
			C269.5,473.2,277.1,460.3,268.6,455.6L268.6,455.6z"/>
	</g>
</g>
<g>
	<g>
		<path d="M282.1,541.3c2.5-4.5,5.1-8.9,8.1-13c1.3-1.8,2.7-3.5,4.1-5.2c0.9-1.1,1.9-2.1,2.8-3.2c0.7-0.7,2.7-1.9,1-1.4
			c-1.3,0-2.7,0-4,0c-1.6-1.1-1.6-1,0.3,0.5c0.9,0.9,1.9,1.7,2.8,2.6c1.9,1.7,3.8,3.4,5.7,5.1c3.8,3.4,7.5,6.8,11.3,10.3
			c7.1,6.5,17.8-4.1,10.6-10.6c-5.2-4.7-10.4-9.4-15.6-14.1c-4.6-4.2-9.5-10.3-16.5-7.8c-5.6,2-10,8.9-13.5,13.5
			c-3.8,5-7.2,10.2-10.2,15.7C264.6,542.2,277.5,549.8,282.1,541.3L282.1,541.3z"/>
	</g>
</g>
<g>
	<path d="M311,445.7c4.4-8,9.1-15.9,14.2-23.4c2.5-3.7,4.1-8.2,7.8-11.1c3.9-3.1,8-5.4,13.2-6.4l1,0.9c-0.1,2.9-0.7,5.4-1.4,7.7
		c-1.6,4.4-3.7,8.5-7.4,11.4c-1.8,1.4-3.7,2.8-5.4,4.3c-3.3,3.1-6.8,6-10.3,9c-3.5,2.9-7.1,5.8-10.8,8.5
		C312,446.5,311,445.7,311,445.7L311,445.7z"/>
</g>
<g>
	<path d="M272.2,444.2c-7.5-4.6-14.8-9.5-21.8-14.8c-3.4-2.6-7.7-4.4-10.2-8.1c-2.8-4-4.7-8-5.2-13.2l0.9-0.9
		c2.9,0.2,5.2,0.8,7.4,1.7c4.2,1.7,8,4,10.6,7.7c1.3,1.8,2.4,3.7,3.8,5.4c2.7,3.4,5.4,6.9,7.9,10.4c2.5,3.6,5.1,7.1,7.5,10.9
		L272.2,444.2L272.2,444.2z"/>
</g>
<g>
	<g>
		<path d="M351.6,338.1c1.3,3.5,2.6,7.1,3.9,10.7c0.7,1.9,1.4,3.7,2,5.6c0.6,1.7,1.2,3.4,2.6,4.6c1.3,1.1,3,1.3,4.6,1.3
			c1.9,0,3.7,0,5.6,0c3.9,0,7.8,0,11.7,0c3.2,0,3.2-5,0-5c-3.5,0-7,0-10.5,0c-1.7,0-3.3,0-5,0c-0.8,0-2.8,0.3-3.4-0.3
			c-0.3-0.3-0.4-0.9-0.6-1.2c-0.3-0.8-0.6-1.5-0.9-2.3c-0.6-1.6-1.2-3.2-1.8-4.9c-1.2-3.2-2.4-6.5-3.6-9.7c-0.5-1.3-1.7-2.1-3.1-1.8
			C352.1,335.4,351.1,336.9,351.6,338.1L351.6,338.1z"/>
	</g>
</g>
<g>
	<g>
		<path d="M385.9,363.8c-8,1.4-16.1,1.9-24.2,1.5c-1.3-0.1-2.5,1.2-2.5,2.5c0.1,6.3,1,12.6,2.8,18.7c0.9,3.1,5.7,1.8,4.8-1.3
			c-1.7-5.7-2.5-11.5-2.6-17.4c-0.8,0.8-1.7,1.7-2.5,2.5c8.5,0.4,17.1-0.2,25.5-1.7c1.3-0.2,2.1-1.9,1.8-3.1
			C388.6,364.1,387.2,363.6,385.9,363.8L385.9,363.8z"/>
	</g>
</g>
<g>
	<g>
		<path d="M340.9,338.1c0.9,3.4,1.9,6.8,2.8,10.2c0.5,1.7,0.9,3.4,1.4,5.1c0.4,1.4,0.6,3,1.1,4.4c0.3,0.8-0.3-0.1,0.1,0.1
			c0,0,0.3,0.1,0,0c-0.2-0.1-1,0.1-1.3,0.1c-1.8,0-3.6,0-5.5,0c-3.5,0-7,0-10.5,0c-3.2,0-3.2,5,0,5c4.1,0,8.2,0,12.3,0
			c3.3,0,8.1,0.7,9.6-3.2c0.7-1.8,0.1-3.5-0.3-5.3c-0.5-1.9-1.1-3.8-1.6-5.8c-1.1-4-2.2-8-3.3-12C344.9,333.7,340.1,335,340.9,338.1
			L340.9,338.1z"/>
	</g>
</g>
<g>
	<g>
		<path d="M330,370c6.3,0,12.6-0.1,18.9-0.1c0.2,0,1.5-0.1,1.5,0.1c-0.3,0-0.4-0.2-0.5-0.4c0-0.1,0,0,0,0.1c0,0,0.1,0.7,0.1,0.5
			c0.2,1.6,0.3,3.2,0.5,4.8c0.3,3.2,0.6,6.4,0.9,9.5c0.1,1.3,1.1,2.5,2.5,2.5c1.2,0,2.6-1.1,2.5-2.5c-0.4-3.7-0.7-7.3-1.1-11
			c-0.3-3.1,0-7.4-3.9-8.5c-1.6-0.4-3.5-0.2-5.1-0.2c-1.8,0-3.7,0-5.5,0c-3.7,0-7.3,0-11,0C326.8,365.1,326.8,370.1,330,370L330,370
			z"/>
	</g>
</g>
</svg>
